# xmcd
#
# Track frame offsets:
#	150
#	15184
#	31673
#	49126
#	70136
#	84323
#	101259
#	125274
#	141261
#	156548
#	179827
#	196957
#	214198
#	231400
#	252819
#
# Disc length: 3612
#
# Revision: 1
# Processed by: cddbd v1.5.1PL0 Copyright (c) Steve Scherf et al.
# Submitted via: VisiTrax 2.9.5.180 - For more info visit www.synapsa.com
# Normalized: r0:DSETVAR1
#
DISCID=c90e1a0f
DTITLE=Various Artist - CMT Most Wanted Vol 1
DYEAR=2003
DGENRE=Country
TTITLE0=Mark Wills - 19 Somethin'
TTITLE1=Jennifer Hanson - Beautiful Goodbye
TTITLE2=Joe Nichols - Brokenheartsville
TTITLE3=Jo Dee Messina - Burn
TTITLE4=Dwight Yoakam - The Back Of Your Hand
TTITLE5=Chris Cagle - What A Beautiful Day
TTITLE6=Cross Canadian Ragweed - 17
TTITLE7=Rhonda Vincent - You Can't Take It With You When You Go
TTITLE8=Trace Adkins - Chrome
TTITLE9=Montgomery Gentry - Cold One Comin' On
TTITLE10=Alison Krauss - Maybe
TTITLE11=Dierks Bentley - What Was I Thinkin'
TTITLE12=Leann Rimes - I Need You
TTITLE13=Keith Urban - Raining On Sunday
TTITLE14=Rascal Flatts - I'm Movin' On
EXTD=
EXTT0=
EXTT1=
EXTT2=
EXTT3=
EXTT4=
EXTT5=
EXTT6=
EXTT7=
EXTT8=
EXTT9=
EXTT10=
EXTT11=
EXTT12=
EXTT13=
EXTT14=
PLAYORDER=
